<?xml version="1.0" encoding="utf-8"?>
<!-- Generator: Adobe Illustrator 27.5.0, SVG Export Plug-In . SVG Version: 6.00 Build 0)  -->
<svg version="1.1" xmlns="http://www.w3.org/2000/svg" xmlns:xlink="http://www.w3.org/1999/xlink" x="0px" y="0px"
	 viewBox="0 0 750 500" style="enable-background:new 0 0 750 500;" xml:space="preserve">
<g id="BACKGROUND">
	<g>
		
			<rect x="125" y="-125" transform="matrix(-1.836970e-16 1 -1 -1.836970e-16 625 -125)" style="fill:#FFF5EE;" width="500" height="750"/>
		<polygon style="fill:#FFFFFF;" points="232.352,0 0,0 0,232.352 		"/>
		<polygon style="fill:#FFFFFF;" points="750,310.062 750,500 560.062,500 		"/>
	</g>
</g>
<g id="OBJECTS">
	<g>
		<g>
			<g>
				<path style="fill:#00B265;" d="M0,428.738h47.703V197.597c0-26.343-21.355-47.699-47.698-47.699H0V428.738z"/>
				<g>
					<path style="fill:none;stroke:#000102;stroke-linecap:round;stroke-linejoin:round;stroke-miterlimit:10;" d="M38.071,428.738
						V206.016c0-21.021-17.045-38.063-38.071-38.063h0"/>
					<path style="fill:none;stroke:#000102;stroke-linecap:round;stroke-linejoin:round;stroke-miterlimit:10;" d="M25.498,428.738
						V211.178c0-14.079-11.416-25.492-25.497-25.492h0"/>
					<path style="fill:none;stroke:#000102;stroke-linecap:round;stroke-linejoin:round;stroke-miterlimit:10;" d="M12.749,428.738
						V215.564c0-7.04-5.708-12.746-12.749-12.746l0,0"/>
				</g>
			</g>
			<polygon style="fill:#FFFFFF;" points="0,283.473 0,500 216.527,500 			"/>
			<g>
				<g>
					<polygon style="fill:#FFCC0E;" points="113.242,362.596 113.242,500 250.646,500 					"/>
					<path style="fill:#FFFFFF;" d="M121.964,436.396c0,1.309,1.061,2.37,2.37,2.37c1.309,0,2.37-1.061,2.37-2.37
						c0-1.309-1.061-2.37-2.37-2.37C123.025,434.026,121.964,435.087,121.964,436.396z M154.595,436.396
						c0,1.309,1.061,2.37,2.37,2.37c1.309,0,2.369-1.061,2.369-2.37c0-1.309-1.061-2.37-2.369-2.37
						C155.656,434.026,154.595,435.087,154.595,436.396z M138.28,436.396c0,1.309,1.061,2.37,2.37,2.37
						c1.309,0,2.37-1.061,2.37-2.37c0-1.309-1.061-2.37-2.37-2.37C139.341,434.026,138.28,435.087,138.28,436.396z M121.964,420.08
						c0,1.309,1.061,2.37,2.37,2.37c1.309,0,2.37-1.061,2.37-2.37c0-1.309-1.061-2.37-2.37-2.37
						C123.025,417.71,121.964,418.771,121.964,420.08z M154.595,420.08c0,1.309,1.061,2.37,2.37,2.37
						c1.309,0,2.369-1.061,2.369-2.37c0-1.309-1.061-2.37-2.369-2.37C155.656,417.71,154.595,418.771,154.595,420.08z
						 M138.28,420.08c0,1.309,1.061,2.37,2.37,2.37c1.309,0,2.37-1.061,2.37-2.37c0-1.309-1.061-2.37-2.37-2.37
						C139.341,417.71,138.28,418.771,138.28,420.08z M121.964,403.764c0,1.309,1.061,2.37,2.37,2.37c1.309,0,2.37-1.061,2.37-2.37
						c0-1.309-1.061-2.37-2.37-2.37C123.025,401.395,121.964,402.455,121.964,403.764z M138.28,403.764
						c0,1.309,1.061,2.37,2.37,2.37c1.309,0,2.37-1.061,2.37-2.37c0-1.309-1.061-2.37-2.37-2.37
						C139.341,401.395,138.28,402.455,138.28,403.764z M121.964,387.071c0,1.309,1.061,2.37,2.37,2.37c1.309,0,2.37-1.061,2.37-2.37
						c0-1.309-1.061-2.37-2.37-2.37C123.025,384.701,121.964,385.762,121.964,387.071z"/>
				</g>
				<g>
					<polygon style="fill:#FF4A2A;" points="0,328.864 0,500 171.136,500 					"/>
					<path style="fill:#FFFFFF;" d="M8.813,440.638c0,1.309,1.061,2.37,2.37,2.37c1.308,0,2.37-1.061,2.37-2.37
						c0-1.309-1.061-2.37-2.37-2.37C9.874,438.268,8.813,439.329,8.813,440.638z M8.813,424.322c0,1.309,1.061,2.37,2.37,2.37
						c1.308,0,2.37-1.061,2.37-2.37c0-1.309-1.061-2.37-2.37-2.37C9.874,421.952,8.813,423.013,8.813,424.322z M41.445,440.638
						c0,1.309,1.061,2.37,2.37,2.37c1.309,0,2.37-1.061,2.37-2.37c0-1.309-1.061-2.37-2.37-2.37
						C42.506,438.268,41.445,439.329,41.445,440.638z M25.129,440.638c0,1.309,1.061,2.37,2.37,2.37c1.309,0,2.37-1.061,2.37-2.37
						c0-1.309-1.061-2.37-2.37-2.37C26.19,438.268,25.129,439.329,25.129,440.638z M41.445,424.322c0,1.309,1.061,2.37,2.37,2.37
						c1.309,0,2.37-1.061,2.37-2.37c0-1.309-1.061-2.37-2.37-2.37C42.506,421.952,41.445,423.013,41.445,424.322z M25.129,424.322
						c0,1.309,1.061,2.37,2.37,2.37c1.309,0,2.37-1.061,2.37-2.37c0-1.309-1.061-2.37-2.37-2.37
						C26.19,421.952,25.129,423.013,25.129,424.322z M8.813,408.006c0,1.309,1.061,2.37,2.37,2.37c1.308,0,2.37-1.061,2.37-2.37
						c0-1.309-1.061-2.37-2.37-2.37C9.874,405.637,8.813,406.697,8.813,408.006z M41.445,408.006c0,1.309,1.061,2.37,2.37,2.37
						c1.309,0,2.37-1.061,2.37-2.37c0-1.309-1.061-2.37-2.37-2.37C42.506,405.637,41.445,406.697,41.445,408.006z M25.129,408.006
						c0,1.309,1.061,2.37,2.37,2.37c1.309,0,2.37-1.061,2.37-2.37c0-1.309-1.061-2.37-2.37-2.37
						C26.19,405.637,25.129,406.697,25.129,408.006z M8.813,391.69c0,1.309,1.061,2.37,2.37,2.37c1.308,0,2.37-1.061,2.37-2.37
						c0-1.309-1.061-2.37-2.37-2.37C9.874,389.321,8.813,390.382,8.813,391.69z M41.445,391.69c0,1.309,1.061,2.37,2.37,2.37
						c1.309,0,2.37-1.061,2.37-2.37c0-1.309-1.061-2.37-2.37-2.37C42.506,389.321,41.445,390.382,41.445,391.69z M25.129,391.69
						c0,1.309,1.061,2.37,2.37,2.37c1.309,0,2.37-1.061,2.37-2.37c0-1.309-1.061-2.37-2.37-2.37
						C26.19,389.321,25.129,390.382,25.129,391.69z M8.813,375.375c0,1.309,1.061,2.37,2.37,2.37c1.308,0,2.37-1.061,2.37-2.37
						c0-1.309-1.061-2.37-2.37-2.37C9.874,373.005,8.813,374.066,8.813,375.375z M25.129,375.375c0,1.309,1.061,2.37,2.37,2.37
						c1.309,0,2.37-1.061,2.37-2.37c0-1.309-1.061-2.37-2.37-2.37C26.19,373.005,25.129,374.066,25.129,375.375z M8.813,358.682
						c0,1.309,1.061,2.369,2.37,2.369c1.308,0,2.37-1.061,2.37-2.369c0-1.309-1.061-2.37-2.37-2.37
						C9.874,356.312,8.813,357.373,8.813,358.682z"/>
				</g>
			</g>
		</g>
		<g>
			<g>
				<defs>
					<rect id="SVGID_1_" y="437.982" width="593.854" height="62.018"/>
				</defs>
				<clipPath id="SVGID_00000093175931742898371910000007808514165835302571_">
					<use xlink:href="#SVGID_1_"  style="overflow:visible;"/>
				</clipPath>
				<g style="clip-path:url(#SVGID_00000093175931742898371910000007808514165835302571_);">
					<path style="fill:none;stroke:#000102;stroke-linecap:round;stroke-linejoin:round;stroke-miterlimit:10;" d="M750,465.179
						c-11.049,0-11.049-11.782-22.098-11.782c-11.048,0-11.048,11.782-22.095,11.782c-11.048,0-11.048-11.782-22.096-11.782
						c-11.047,0-11.047,11.782-22.095,11.782c-11.047,0-11.047-11.782-22.095-11.782c-11.046,0-11.046,11.782-22.092,11.782
						c-11.047,0-11.047-11.782-22.094-11.782c-10.941,0-11.053,11.549-21.786,11.772c-10.732-0.223-10.844-11.772-21.785-11.772
						c-11.047,0-11.047,11.782-22.094,11.782c-11.046,0-11.046-11.782-22.092-11.782c-11.047,0-11.047,11.782-22.095,11.782
						c-11.047,0-11.047-11.782-22.095-11.782c-11.048,0-11.048,11.782-22.096,11.782c-11.048,0-11.048-11.782-22.095-11.782
						c-11.049,0-11.049,11.782-22.098,11.782c-11.049,0-11.049-11.782-22.098-11.782c-11.049,0-11.049,11.782-22.098,11.782
						c-11.049,0-11.049-11.782-22.098-11.782c-11.048,0-11.048,11.782-22.095,11.782c-11.048,0-11.048-11.782-22.096-11.782
						c-11.047,0-11.047,11.782-22.095,11.782c-11.047,0-11.047-11.782-22.095-11.782c-11.046,0-11.046,11.782-22.092,11.782
						c-11.047,0-11.047-11.782-22.094-11.782c-10.941,0-11.053,11.549-21.786,11.772c-10.732-0.223-10.844-11.772-21.785-11.772
						c-11.047,0-11.047,11.782-22.094,11.782c-11.046,0-11.046-11.782-22.092-11.782c-11.047,0-11.047,11.782-22.095,11.782
						c-11.047,0-11.047-11.782-22.095-11.782c-11.048,0-11.048,11.782-22.096,11.782c-11.048,0-11.048-11.782-22.095-11.782
						c-11.049,0-11.049,11.782-22.098,11.782"/>
					<path style="fill:#000102;" d="M750,503.335v-27.911c-11.049,0-11.049-11.782-22.098-11.782
						c-11.048,0-11.048,11.782-22.095,11.782c-11.048,0-11.048-11.782-22.096-11.782c-11.047,0-11.047,11.782-22.095,11.782
						c-11.047,0-11.047-11.782-22.095-11.782c-11.046,0-11.046,11.782-22.092,11.782c-11.047,0-11.047-11.782-22.094-11.782
						c-10.941,0-11.053,11.549-21.786,11.772c-10.732-0.223-10.844-11.772-21.785-11.772c-11.047,0-11.047,11.782-22.094,11.782
						c-11.046,0-11.046-11.782-22.092-11.782c-11.047,0-11.047,11.782-22.095,11.782c-11.047,0-11.047-11.782-22.095-11.782
						c-11.048,0-11.048,11.782-22.096,11.782c-11.048,0-11.048-11.782-22.095-11.782c-11.049,0-11.049,11.782-22.098,11.782
						c-11.049,0-11.049-11.782-22.098-11.782c-11.049,0-11.049,11.782-22.098,11.782c-11.049,0-11.049-11.782-22.098-11.782
						c-11.048,0-11.048,11.782-22.095,11.782c-11.048,0-11.048-11.782-22.096-11.782c-11.047,0-11.047,11.782-22.095,11.782
						c-11.047,0-11.047-11.782-22.095-11.782c-11.046,0-11.046,11.782-22.092,11.782c-11.047,0-11.047-11.782-22.094-11.782
						c-10.941,0-11.053,11.549-21.786,11.772c-10.732-0.223-10.844-11.772-21.785-11.772c-11.047,0-11.047,11.782-22.094,11.782
						c-11.046,0-11.046-11.782-22.092-11.782c-11.047,0-11.047,11.782-22.095,11.782c-11.047,0-11.047-11.782-22.095-11.782
						c-11.048,0-11.048,11.782-22.096,11.782c-11.048,0-11.048-11.782-22.095-11.782c-11.049,0-11.049,11.782-22.098,11.782v27.911
						H750z"/>
					<path style="fill:#3A95FF;" d="M750,513.581v-27.911c-11.049,0-11.049-11.782-22.098-11.782
						c-11.048,0-11.048,11.782-22.095,11.782c-11.048,0-11.048-11.782-22.096-11.782c-11.047,0-11.047,11.782-22.095,11.782
						c-11.047,0-11.047-11.782-22.095-11.782c-11.046,0-11.046,11.782-22.092,11.782c-11.047,0-11.047-11.782-22.094-11.782
						c-10.941,0-11.053,11.549-21.786,11.772c-10.732-0.223-10.844-11.772-21.785-11.772c-11.047,0-11.047,11.782-22.094,11.782
						c-11.046,0-11.046-11.782-22.092-11.782c-11.047,0-11.047,11.782-22.095,11.782c-11.047,0-11.047-11.782-22.095-11.782
						c-11.048,0-11.048,11.782-22.096,11.782c-11.048,0-11.048-11.782-22.095-11.782c-11.049,0-11.049,11.782-22.098,11.782
						c-11.049,0-11.049-11.782-22.098-11.782c-11.049,0-11.049,11.782-22.098,11.782c-11.049,0-11.049-11.782-22.098-11.782
						c-11.048,0-11.048,11.782-22.095,11.782c-11.048,0-11.048-11.782-22.096-11.782c-11.047,0-11.047,11.782-22.095,11.782
						c-11.047,0-11.047-11.782-22.095-11.782c-11.046,0-11.046,11.782-22.092,11.782c-11.047,0-11.047-11.782-22.094-11.782
						c-10.941,0-11.053,11.549-21.786,11.772c-10.732-0.223-10.844-11.772-21.785-11.772c-11.047,0-11.047,11.782-22.094,11.782
						c-11.046,0-11.046-11.782-22.092-11.782c-11.047,0-11.047,11.782-22.095,11.782c-11.047,0-11.047-11.782-22.095-11.782
						c-11.048,0-11.048,11.782-22.096,11.782c-11.048,0-11.048-11.782-22.095-11.782c-11.049,0-11.049,11.782-22.098,11.782v27.911
						H750z"/>
				</g>
			</g>
			<g>
				<path style="fill:#FFF5EE;" d="M669.654,500c0-44.397-35.991-80.387-80.387-80.387c-44.397,0-80.387,35.99-80.387,80.387"/>
				<g>
					<g>
						<circle style="fill:#FFCC0E;" cx="470.178" cy="255.121" r="12.194"/>
						
							<ellipse transform="matrix(0.7843 -0.6204 0.6204 0.7843 -58.6856 350.2972)" style="fill:none;stroke:#000102;stroke-linecap:round;stroke-linejoin:round;stroke-miterlimit:10;" cx="474.41" cy="259.543" rx="10.595" ry="10.595"/>
					</g>
					<g>
						<circle style="fill:#3A95FF;" cx="725.25" cy="190.561" r="12.194"/>
						
							<circle style="fill:none;stroke:#000102;stroke-linecap:round;stroke-linejoin:round;stroke-miterlimit:10;" cx="721.018" cy="186.139" r="10.595"/>
					</g>
					<g>
						<circle style="fill:#0048B9;" cx="579.823" cy="347.432" r="6.417"/>
						
							<circle style="fill:none;stroke:#000102;stroke-linecap:round;stroke-linejoin:round;stroke-miterlimit:10;" cx="579.823" cy="347.432" r="10.595"/>
					</g>
					<g>
						<circle style="fill:#FF4A2A;" cx="440.88" cy="386.597" r="12.194"/>
						
							<ellipse transform="matrix(0.7685 -0.6398 0.6398 0.7685 -151.6427 367.8706)" style="fill:none;stroke:#000102;stroke-linecap:round;stroke-linejoin:round;stroke-miterlimit:10;" cx="432.569" cy="393.503" rx="10.595" ry="10.595"/>
					</g>
					<g>
						
							<ellipse transform="matrix(0.4788 -0.8779 0.8779 0.4788 131.283 623.1175)" style="fill:#FFC1D2;" cx="590.418" cy="200.995" rx="16.139" ry="16.139"/>
						
							<ellipse transform="matrix(0.7071 -0.7071 0.7071 0.7071 30.8046 476.3588)" style="fill:none;stroke:#000102;stroke-linecap:round;stroke-linejoin:round;stroke-miterlimit:10;" cx="590.418" cy="200.995" rx="10.595" ry="10.595"/>
					</g>
				</g>
				<g>
					<g>
						<g>
							<g>
								
									<line style="fill:none;stroke:#000102;stroke-linecap:round;stroke-linejoin:round;stroke-miterlimit:10;" x1="618.503" y1="313.706" x2="618.503" y2="285.847"/>
								
									<line style="fill:none;stroke:#000102;stroke-linecap:round;stroke-linejoin:round;stroke-miterlimit:10;" x1="625.092" y1="316.415" x2="625.092" y2="288.556"/>
								
									<line style="fill:none;stroke:#000102;stroke-linecap:round;stroke-linejoin:round;stroke-miterlimit:10;" x1="611.915" y1="316.415" x2="611.915" y2="288.556"/>
							</g>
							<path style="fill:#000102;" d="M616.517,284.304c0,1.097,0.889,1.986,1.986,1.986c1.097,0,1.986-0.889,1.986-1.986
								c0-1.097-0.889-1.986-1.986-1.986C617.406,282.318,616.517,283.207,616.517,284.304z"/>
							<path style="fill:#000102;" d="M623.106,288.756c0,1.097,0.889,1.986,1.986,1.986c1.097,0,1.986-0.889,1.986-1.986
								c0-1.097-0.889-1.986-1.986-1.986C623.995,286.77,623.106,287.659,623.106,288.756z"/>
							<path style="fill:#000102;" d="M609.929,288.756c0,1.097,0.889,1.986,1.986,1.986s1.986-0.889,1.986-1.986
								c0-1.097-0.889-1.986-1.986-1.986S609.929,287.659,609.929,288.756z"/>
						</g>
						<path style="fill:#00B265;" d="M628.35,357.397c-7.082,6.161-9.42,15.065-9.42,15.065s9.143-1.084,16.224-7.244
							c7.082-6.161,9.42-15.065,9.42-15.065S635.432,351.237,628.35,357.397z"/>
						<polygon style="fill:#FFCC0E;" points="596.259,285.615 618.503,307.859 640.747,285.615 658.703,303.57 618.503,343.77 
							578.304,303.57 						"/>
						<polygon style="fill:#00B265;" points="607.873,315.978 618.503,326.609 629.133,315.978 637.714,324.559 618.503,343.77 
							599.293,324.559 						"/>
						<g>
							<polyline style="fill:none;stroke:#000102;stroke-linecap:round;stroke-linejoin:round;stroke-miterlimit:10;" points="
								575.597,300.864 618.503,343.77 661.409,300.864 							"/>
							<polyline style="fill:none;stroke:#000102;stroke-linecap:round;stroke-linejoin:round;stroke-miterlimit:10;" points="
								579.823,296.638 618.503,335.319 657.184,296.638 							"/>
							<polyline style="fill:none;stroke:#000102;stroke-linecap:round;stroke-linejoin:round;stroke-miterlimit:10;" points="
								584.094,292.367 618.503,326.776 652.912,292.367 							"/>
							<polyline style="fill:none;stroke:#000102;stroke-linecap:round;stroke-linejoin:round;stroke-miterlimit:10;" points="
								588.916,287.545 618.503,317.132 648.09,287.545 							"/>
							<polyline style="fill:none;stroke:#000102;stroke-linecap:round;stroke-linejoin:round;stroke-miterlimit:10;" points="
								593.553,282.908 618.503,307.859 643.454,282.908 							"/>
						</g>
						
							<line style="fill:none;stroke:#000102;stroke-linecap:round;stroke-linejoin:round;stroke-miterlimit:10;" x1="618.503" y1="343.77" x2="618.503" y2="398.067"/>
					</g>
					<g>
						<g>
							<g>
								
									<line style="fill:none;stroke:#000102;stroke-linecap:round;stroke-linejoin:round;stroke-miterlimit:10;" x1="560.068" y1="257.291" x2="560.068" y2="229.432"/>
								
									<line style="fill:none;stroke:#000102;stroke-linecap:round;stroke-linejoin:round;stroke-miterlimit:10;" x1="566.657" y1="260" x2="566.657" y2="232.141"/>
								
									<line style="fill:none;stroke:#000102;stroke-linecap:round;stroke-linejoin:round;stroke-miterlimit:10;" x1="553.479" y1="260" x2="553.479" y2="232.141"/>
							</g>
							<path style="fill:#000102;" d="M558.082,227.889c0,1.097,0.889,1.986,1.986,1.986s1.986-0.889,1.986-1.986
								s-0.889-1.986-1.986-1.986S558.082,226.792,558.082,227.889z"/>
							<path style="fill:#000102;" d="M564.671,232.34c0,1.097,0.889,1.986,1.986,1.986s1.986-0.889,1.986-1.986
								c0-1.097-0.889-1.986-1.986-1.986S564.671,231.244,564.671,232.34z"/>
							<path style="fill:#000102;" d="M551.493,232.34c0,1.097,0.889,1.986,1.986,1.986s1.986-0.889,1.986-1.986
								c0-1.097-0.889-1.986-1.986-1.986S551.493,231.244,551.493,232.34z"/>
						</g>
						<path style="fill:#0048B9;" d="M597.628,250.083v7.326c0,20.744-16.816,37.56-37.56,37.56l0,0
							c-20.744,0-37.56-16.816-37.56-37.56v-7.326H597.628z"/>
						<path style="fill:#3A95FF;" d="M580.227,250.083v6.957c0,11.133-9.025,20.159-20.159,20.159l0,0
							c-11.133,0-20.159-9.025-20.159-20.159v-6.957H580.227z"/>
						<g>
							<path style="fill:none;stroke:#000102;stroke-linecap:round;stroke-linejoin:round;stroke-miterlimit:10;" d="
								M522.508,244.191v13.217c0,20.744,16.816,37.56,37.56,37.56l0,0c20.744,0,37.56-16.816,37.56-37.56v-13.217"/>
							<path style="fill:none;stroke:#000102;stroke-linecap:round;stroke-linejoin:round;stroke-miterlimit:10;" d="
								M531.36,244.191v13.217c0,15.855,12.853,28.708,28.708,28.708l0,0c15.855,0,28.708-12.853,28.708-28.708v-13.217"/>
							<path style="fill:none;stroke:#000102;stroke-linecap:round;stroke-linejoin:round;stroke-miterlimit:10;" d="
								M540.212,244.191v13.217c0,10.966,8.89,19.856,19.856,19.856l0,0c10.966,0,19.856-8.89,19.856-19.856v-13.217"/>
							<path style="fill:none;stroke:#000102;stroke-linecap:round;stroke-linejoin:round;stroke-miterlimit:10;" d="
								M549.064,244.191v13.217c0,6.077,4.927,11.004,11.004,11.004l0,0c6.078,0,11.004-4.927,11.004-11.004v-13.217"/>
						</g>
						<path style="fill:#FFCC0E;" d="M555.746,304.765c4.812,4.186,4.559,12.353,4.559,12.353s-8.054,1.381-12.865-2.805
							c-4.812-4.186-4.559-12.353-4.559-12.353S550.935,300.579,555.746,304.765z"/>
						
							<line style="fill:none;stroke:#000102;stroke-linecap:round;stroke-linejoin:round;stroke-miterlimit:10;" x1="560.068" y1="294.969" x2="560.068" y2="390.474"/>
					</g>
					<g>
						<g>
							<g>
								
									<line style="fill:none;stroke:#000102;stroke-linecap:round;stroke-linejoin:round;stroke-miterlimit:10;" x1="491.59" y1="316.055" x2="491.59" y2="288.195"/>
								
									<line style="fill:none;stroke:#000102;stroke-linecap:round;stroke-linejoin:round;stroke-miterlimit:10;" x1="498.179" y1="318.763" x2="498.179" y2="290.904"/>
								
									<line style="fill:none;stroke:#000102;stroke-linecap:round;stroke-linejoin:round;stroke-miterlimit:10;" x1="485.002" y1="318.763" x2="485.002" y2="290.904"/>
							</g>
							<path style="fill:#000102;" d="M489.604,286.652c0,1.097,0.889,1.986,1.986,1.986c1.097,0,1.986-0.889,1.986-1.986
								c0-1.097-0.889-1.986-1.986-1.986C490.493,284.666,489.604,285.556,489.604,286.652z"/>
							<path style="fill:#000102;" d="M496.193,291.104c0,1.097,0.889,1.986,1.986,1.986c1.097,0,1.986-0.889,1.986-1.986
								c0-1.097-0.889-1.986-1.986-1.986C497.082,289.118,496.193,290.007,496.193,291.104z"/>
							<path style="fill:#000102;" d="M483.016,291.104c0,1.097,0.889,1.986,1.986,1.986s1.986-0.889,1.986-1.986
								c0-1.097-0.889-1.986-1.986-1.986S483.016,290.007,483.016,291.104z"/>
						</g>
						<rect x="453.791" y="308.16" style="fill:#FFC1D2;" width="75.121" height="44.886"/>
						<rect x="471.495" y="308.16" style="fill:#FF4A2A;" width="39.713" height="27.182"/>
						<g>
							<polyline style="fill:none;stroke:#000102;stroke-linecap:round;stroke-linejoin:round;stroke-miterlimit:10;" points="
								453.791,302.268 453.791,353.046 528.911,353.046 528.911,302.268 							"/>
							<polyline style="fill:none;stroke:#000102;stroke-linecap:round;stroke-linejoin:round;stroke-miterlimit:10;" points="
								462.643,302.268 462.643,344.194 520.059,344.194 520.059,302.268 							"/>
							<polyline style="fill:none;stroke:#000102;stroke-linecap:round;stroke-linejoin:round;stroke-miterlimit:10;" points="
								471.495,302.268 471.495,335.342 511.207,335.342 511.207,302.268 							"/>
							<polyline style="fill:none;stroke:#000102;stroke-linecap:round;stroke-linejoin:round;stroke-miterlimit:10;" points="
								480.347,302.268 480.347,326.49 502.355,326.49 502.355,302.268 							"/>
						</g>
						<path style="fill:#0048B9;" d="M487.029,376.06c4.811,4.186,4.559,12.353,4.559,12.353s-8.054,1.381-12.865-2.805
							c-4.812-4.186-4.559-12.353-4.559-12.353S482.218,371.874,487.029,376.06z"/>
						
							<line style="fill:none;stroke:#000102;stroke-linecap:round;stroke-linejoin:round;stroke-miterlimit:10;" x1="491.351" y1="353.046" x2="491.351" y2="451.623"/>
					</g>
					<g>
						
							<line style="fill:none;stroke:#000102;stroke-linecap:round;stroke-linejoin:round;stroke-miterlimit:10;" x1="687.243" y1="272.442" x2="687.243" y2="455.749"/>
						<g>
							<g>
								
									<line style="fill:none;stroke:#000102;stroke-linecap:round;stroke-linejoin:round;stroke-miterlimit:10;" x1="687.243" y1="233.498" x2="687.243" y2="205.639"/>
								
									<line style="fill:none;stroke:#000102;stroke-linecap:round;stroke-linejoin:round;stroke-miterlimit:10;" x1="693.832" y1="236.207" x2="693.832" y2="208.348"/>
								
									<line style="fill:none;stroke:#000102;stroke-linecap:round;stroke-linejoin:round;stroke-miterlimit:10;" x1="680.655" y1="236.207" x2="680.655" y2="208.348"/>
							</g>
							<path style="fill:#000102;" d="M685.257,204.096c0,1.097,0.889,1.986,1.986,1.986c1.097,0,1.986-0.889,1.986-1.986
								s-0.889-1.986-1.986-1.986C686.146,202.11,685.257,202.999,685.257,204.096z"/>
							<path style="fill:#000102;" d="M691.846,208.548c0,1.097,0.889,1.986,1.986,1.986c1.097,0,1.986-0.889,1.986-1.986
								s-0.889-1.986-1.986-1.986C692.735,206.562,691.846,207.451,691.846,208.548z"/>
							<path style="fill:#000102;" d="M678.669,208.548c0,1.097,0.889,1.986,1.986,1.986s1.986-0.889,1.986-1.986
								s-0.889-1.986-1.986-1.986S678.669,207.451,678.669,208.548z"/>
						</g>
						<path style="fill:#FF4A2A;" d="M741.159,225.876c-3.838,26.338-26.513,46.566-53.916,46.566s-50.078-20.228-53.916-46.566
							H741.159z"/>
						<path style="fill:#FFC1D2;" d="M657.652,225.876c3.704,13.732,14.253,22.928,29.591,22.928
							c15.157,0,25.963-9.976,29.615-22.928H657.652z"/>
						<g>
							<path style="fill:none;stroke:#000102;stroke-linecap:round;stroke-linejoin:round;stroke-miterlimit:10;" d="
								M664.064,217.951c0,12.802,10.378,23.179,23.179,23.179c12.802,0,23.179-10.378,23.179-23.179"/>
							<path style="fill:none;stroke:#000102;stroke-linecap:round;stroke-linejoin:round;stroke-miterlimit:10;" d="
								M656.326,217.951c0,17.075,13.842,30.917,30.917,30.917s30.917-13.842,30.917-30.917"/>
							<path style="fill:none;stroke:#000102;stroke-linecap:round;stroke-linejoin:round;stroke-miterlimit:10;" d="
								M648.661,217.951c0,21.308,17.274,38.582,38.582,38.582c21.308,0,38.582-17.274,38.582-38.582"/>
							<path style="fill:none;stroke:#000102;stroke-linecap:round;stroke-linejoin:round;stroke-miterlimit:10;" d="
								M640.742,217.951c0,25.682,20.819,46.501,46.501,46.501s46.501-20.819,46.501-46.501"/>
							<path style="fill:none;stroke:#000102;stroke-linecap:round;stroke-linejoin:round;stroke-miterlimit:10;" d="
								M632.752,217.951c0,30.095,24.397,54.491,54.491,54.491c30.095,0,54.491-24.397,54.491-54.491"/>
						</g>
					</g>
				</g>
				<polygon style="fill:#00B265;" points="750,339.267 750,500 589.267,500 				"/>
				<g>
					<polygon style="fill:#FFC1D2;" points="669.598,315.642 672.428,311.512 672.289,316.517 677.006,314.838 673.953,318.806 
						678.755,320.221 673.953,321.636 677.006,325.603 672.289,323.925 672.428,328.93 669.598,324.799 666.768,328.93 
						666.907,323.925 662.19,325.603 665.243,321.636 660.441,320.221 665.243,318.806 662.19,314.838 666.907,316.517 
						666.768,311.512 					"/>
					<polygon style="fill:#3A95FF;" points="514.628,372.014 517.458,367.884 517.319,372.889 522.037,371.21 518.983,375.178 
						523.785,376.593 518.983,378.008 522.037,381.975 517.319,380.297 517.458,385.302 514.628,381.171 511.798,385.302 
						511.937,380.297 507.22,381.975 510.274,378.008 505.471,376.593 510.274,375.178 507.22,371.21 511.937,372.889 
						511.798,367.884 					"/>
					<polygon style="fill:#FF4A2A;" points="511.738,210.213 514.568,206.082 514.43,211.087 519.147,209.409 516.093,213.376 
						520.896,214.791 516.093,216.206 519.147,220.174 514.43,218.495 514.568,223.5 511.738,219.37 508.909,223.5 509.047,218.495 
						504.33,220.174 507.384,216.206 502.581,214.791 507.384,213.376 504.33,209.409 509.047,211.087 508.909,206.082 					"/>
					<polygon style="fill:#FFCC0E;" points="660.441,178.998 663.27,174.868 663.132,179.872 667.849,178.194 664.795,182.162 
						669.598,183.577 664.795,184.992 667.849,188.959 663.132,187.281 663.27,192.286 660.441,188.155 657.611,192.286 
						657.749,187.281 653.032,188.959 656.086,184.992 651.283,183.577 656.086,182.162 653.032,178.194 657.749,179.872 
						657.611,174.868 					"/>
				</g>
				<g>
					<path style="fill:#FFCC0E;" d="M647.646,500c0-32.242-26.137-58.379-58.379-58.379c-32.242,0-58.379,26.137-58.379,58.379"/>
					<g>
						<path style="fill:none;stroke:#000102;stroke-linecap:round;stroke-linejoin:round;stroke-miterlimit:10;" d="M618.367,500
							c0-16.071-13.029-29.1-29.1-29.1c-16.072,0-29.1,13.029-29.1,29.1"/>
						<path style="fill:none;stroke:#000102;stroke-linecap:round;stroke-linejoin:round;stroke-miterlimit:10;" d="M628.081,500
							c0-21.436-17.378-38.814-38.814-38.814S550.453,478.564,550.453,500"/>
						<path style="fill:none;stroke:#000102;stroke-linecap:round;stroke-linejoin:round;stroke-miterlimit:10;" d="M637.704,500
							c0-26.751-21.686-48.437-48.437-48.437S540.83,473.249,540.83,500"/>
						<path style="fill:none;stroke:#000102;stroke-linecap:round;stroke-linejoin:round;stroke-miterlimit:10;" d="M647.646,500
							c0-32.242-26.137-58.379-58.379-58.379c-32.242,0-58.379,26.137-58.379,58.379"/>
						<path style="fill:none;stroke:#000102;stroke-linecap:round;stroke-linejoin:round;stroke-miterlimit:10;" d="M657.677,500
							c0-37.782-30.628-68.41-68.41-68.41s-68.41,30.628-68.41,68.41"/>
					</g>
					<g>
						<g>
							<path style="fill:#0048B9;" d="M669.667,500c0-44.404-35.996-80.4-80.4-80.4c-44.404,0-80.4,35.996-80.4,80.4h-32.712
								c0-62.47,50.642-113.112,113.112-113.112S702.378,437.53,702.378,500H669.667z"/>
						</g>
						<g>
							<path style="fill:#000102;" d="M533.136,401.779l16.369,28.352c-0.289,0.165-0.579,0.33-0.866,0.498l-16.365-28.346
								c0,0,0.001,0,0.001-0.001C532.561,402.115,532.847,401.944,533.136,401.779z"/>
							<path style="fill:#000102;" d="M479.982,470.749c0.047-0.171,0.092-0.342,0.139-0.513l31.617,8.472
								c-0.088,0.322-0.189,0.639-0.273,0.962l-31.606-8.469C479.899,471.051,479.942,470.9,479.982,470.749z"/>
							<path style="fill:#000102;" d="M509.642,419.669l23.135,23.135c-0.237,0.234-0.473,0.47-0.707,0.707l-23.135-23.135
								c0,0,0,0,0.001-0.001C509.17,420.139,509.406,419.904,509.642,419.669z"/>
							<path style="fill:#000102;" d="M491.55,443.006l28.346,16.365c-0.169,0.287-0.333,0.577-0.499,0.867l-28.352-16.369
								C491.211,443.58,491.382,443.294,491.55,443.006z"/>
							<path style="fill:#000102;" d="M702.372,499.5c0.001,0.167,0.006,0.333,0.006,0.5h-32.712c0-0.168-0.012-0.333-0.013-0.5
								H702.372z"/>
							<path style="fill:#000102;" d="M567.975,422.472l-8.472-31.618c0.264-0.072,0.527-0.144,0.792-0.214
								c0.058-0.016,0.116-0.032,0.175-0.047l8.469,31.606C568.614,422.283,568.297,422.384,567.975,422.472z"/>
							<path style="fill:#000102;" d="M659.136,460.239c-0.165-0.29-0.33-0.58-0.499-0.867l28.346-16.365
								c0.168,0.288,0.339,0.573,0.504,0.862c0,0,0,0,0,0.001L659.136,460.239z"/>
							<path style="fill:#000102;" d="M508.88,499.5c-0.001,0.168-0.013,0.332-0.013,0.5h-32.712c0-0.167,0.006-0.333,0.006-0.5
								H508.88z"/>
							<path style="fill:#000102;" d="M589.767,419.613c-0.167-0.001-0.332-0.013-0.5-0.013c-0.168,0-0.333,0.012-0.5,0.013v-32.718
								c0.167-0.001,0.333-0.006,0.5-0.006s0.333,0.006,0.5,0.006V419.613z"/>
							<path style="fill:#000102;" d="M667.068,479.671c-0.084-0.324-0.185-0.64-0.273-0.962l31.618-8.472
								c0.088,0.322,0.176,0.643,0.261,0.965L667.068,479.671z"/>
							<path style="fill:#000102;" d="M646.26,402.283l-16.366,28.346c-0.287-0.169-0.577-0.333-0.866-0.498l16.369-28.352
								c0,0,0,0,0,0C645.687,401.944,645.973,402.115,646.26,402.283z"/>
							<path style="fill:#000102;" d="M618.696,390.764c0.112,0.03,0.223,0.06,0.335,0.091l-8.472,31.618
								c-0.322-0.088-0.639-0.189-0.963-0.273l8.469-31.606C618.276,390.648,618.485,390.707,618.696,390.764z"/>
							<path style="fill:#000102;" d="M669.598,420.376l-23.135,23.135c-0.234-0.237-0.47-0.473-0.707-0.707l23.135-23.135
								C669.128,419.903,669.363,420.139,669.598,420.376C669.598,420.376,669.598,420.376,669.598,420.376z"/>
						</g>
					</g>
				</g>
			</g>
		</g>
		<g>
			<g>
				<g>
					<path style="fill:none;stroke:#000102;stroke-linecap:round;stroke-linejoin:round;stroke-miterlimit:10;" d="M28.564,12.079
						c4.987,0,7.427,2.553,10.01,5.256c2.548,2.666,5.183,5.423,10.402,5.423c5.216,0,7.849-2.756,10.396-5.422
						c2.583-2.703,5.023-5.256,10.011-5.256c4.987,0,7.427,2.553,10.01,5.256c2.547,2.665,5.18,5.422,10.396,5.422
						c5.216,0,7.85-2.756,10.396-5.422c2.583-2.703,5.023-5.256,10.01-5.256c4.988,0,7.427,2.553,10.01,5.256
						c2.547,2.666,5.465,5.422,10.681,5.422l0,0c5.219,0,7.854-2.757,10.402-5.423c2.583-2.703,5.023-5.255,10.01-5.255
						c4.987,0,7.427,2.553,10.01,5.256c2.548,2.666,5.183,5.423,10.402,5.423c5.216,0,7.849-2.756,10.396-5.421
						c2.583-2.704,5.023-5.257,10.01-5.257c4.987,0,7.427,2.553,10.01,5.256c2.548,2.666,5.183,5.423,10.402,5.423
						c5.216,0,7.849-2.756,10.396-5.422c2.583-2.703,5.023-5.256,10.01-5.256c4.987,0,7.427,2.553,10.01,5.256
						c2.547,2.665,5.18,5.422,10.396,5.422s7.85-2.756,10.396-5.422c2.583-2.703,5.023-5.256,10.01-5.256
						c4.988,0,7.427,2.553,10.01,5.256c2.547,2.666,5.181,5.422,10.396,5.422"/>
					<path style="fill:none;stroke:#000102;stroke-linecap:round;stroke-linejoin:round;stroke-miterlimit:10;" d="M28.564,31.71
						c4.987,0,7.427,2.553,10.01,5.256c2.548,2.666,5.183,5.423,10.402,5.423c5.216,0,7.849-2.756,10.396-5.422
						c2.583-2.703,5.023-5.256,10.011-5.256c4.987,0,7.427,2.553,10.01,5.256c2.547,2.665,5.18,5.422,10.396,5.422
						c5.216,0,7.85-2.756,10.396-5.422c2.583-2.703,5.023-5.256,10.01-5.256c4.988,0,7.427,2.553,10.01,5.256
						c2.547,2.666,5.465,5.422,10.681,5.422l0,0c5.219,0,7.854-2.757,10.402-5.423c2.583-2.703,5.023-5.255,10.01-5.255
						c4.987,0,7.427,2.553,10.01,5.256c2.548,2.666,5.183,5.423,10.402,5.423c5.216,0,7.849-2.756,10.396-5.422
						c2.583-2.703,5.023-5.257,10.01-5.257c4.987,0,7.427,2.553,10.01,5.256c2.548,2.666,5.183,5.423,10.402,5.423
						c5.216,0,7.849-2.756,10.396-5.422c2.583-2.703,5.023-5.256,10.01-5.256c4.987,0,7.427,2.553,10.01,5.256
						c2.547,2.665,5.18,5.422,10.396,5.422s7.85-2.756,10.396-5.422c2.583-2.703,5.023-5.256,10.01-5.256
						c4.988,0,7.427,2.553,10.01,5.256c2.547,2.666,5.181,5.422,10.396,5.422"/>
					<path style="fill:none;stroke:#000102;stroke-linecap:round;stroke-linejoin:round;stroke-miterlimit:10;" d="M28.564,51.341
						c4.987,0,7.427,2.553,10.01,5.256c2.548,2.666,5.183,5.423,10.402,5.423c5.216,0,7.849-2.756,10.396-5.422
						c2.583-2.703,5.023-5.257,10.011-5.257c4.987,0,7.427,2.553,10.01,5.257c2.547,2.665,5.18,5.422,10.396,5.422
						c5.216,0,7.85-2.756,10.396-5.422c2.583-2.703,5.023-5.257,10.01-5.257c4.988,0,7.427,2.553,10.01,5.257
						c2.547,2.666,5.465,5.422,10.681,5.422l0,0c5.219,0,7.854-2.757,10.402-5.423c2.583-2.703,5.023-5.256,10.01-5.256
						c4.987,0,7.427,2.553,10.01,5.256c2.548,2.666,5.183,5.423,10.402,5.423c5.216,0,7.849-2.756,10.396-5.422
						c2.583-2.703,5.023-5.257,10.01-5.257c4.987,0,7.427,2.553,10.01,5.256c2.548,2.666,5.183,5.423,10.402,5.423
						c5.216,0,7.849-2.756,10.396-5.422c2.583-2.703,5.023-5.257,10.01-5.257c4.987,0,7.427,2.553,10.01,5.257
						c2.547,2.665,5.18,5.422,10.396,5.422s7.85-2.756,10.396-5.422c2.583-2.703,5.023-5.257,10.01-5.257
						c4.988,0,7.427,2.553,10.01,5.257c2.547,2.666,5.181,5.422,10.396,5.422"/>
					<path style="fill:none;stroke:#000102;stroke-linecap:round;stroke-linejoin:round;stroke-miterlimit:10;" d="M28.564,70.973
						c4.987,0,7.427,2.553,10.01,5.256c2.548,2.666,5.183,5.423,10.402,5.423c5.216,0,7.849-2.756,10.396-5.422
						c2.583-2.703,5.023-5.257,10.011-5.257c4.987,0,7.427,2.553,10.01,5.257c2.547,2.666,5.18,5.422,10.396,5.422
						c5.216,0,7.85-2.756,10.396-5.422c2.583-2.703,5.023-5.257,10.01-5.257c4.988,0,7.427,2.553,10.01,5.257
						c2.547,2.666,5.465,5.422,10.681,5.422l0,0c5.219,0,7.854-2.757,10.402-5.423c2.583-2.703,5.023-5.256,10.01-5.256
						c4.987,0,7.427,2.553,10.01,5.256c2.548,2.666,5.183,5.423,10.402,5.423c5.216,0,7.849-2.756,10.396-5.422
						c2.583-2.703,5.023-5.257,10.01-5.257c4.987,0,7.427,2.553,10.01,5.256c2.548,2.666,5.183,5.423,10.402,5.423
						c5.216,0,7.849-2.756,10.396-5.422c2.583-2.703,5.023-5.257,10.01-5.257c4.987,0,7.427,2.553,10.01,5.257
						c2.547,2.666,5.18,5.422,10.396,5.422s7.85-2.756,10.396-5.422c2.583-2.703,5.023-5.257,10.01-5.257
						c4.988,0,7.427,2.553,10.01,5.257c2.547,2.666,5.181,5.422,10.396,5.422"/>
					<path style="fill:none;stroke:#000102;stroke-linecap:round;stroke-linejoin:round;stroke-miterlimit:10;" d="M28.564,90.604
						c4.987,0,7.427,2.553,10.01,5.256c2.548,2.666,5.183,5.423,10.402,5.423c5.216,0,7.849-2.756,10.396-5.422
						c2.583-2.703,5.023-5.257,10.011-5.257c4.987,0,7.427,2.553,10.01,5.257c2.547,2.665,5.18,5.422,10.396,5.422
						c5.216,0,7.85-2.756,10.396-5.422c2.583-2.703,5.023-5.257,10.01-5.257c4.988,0,7.427,2.553,10.01,5.257
						c2.547,2.666,5.465,5.422,10.681,5.422l0,0c5.219,0,7.854-2.757,10.402-5.423c2.583-2.703,5.023-5.256,10.01-5.256
						c4.987,0,7.427,2.553,10.01,5.256c2.548,2.666,5.183,5.423,10.402,5.423c5.216,0,7.849-2.756,10.396-5.422
						c2.583-2.703,5.023-5.257,10.01-5.257c4.987,0,7.427,2.553,10.01,5.256c2.548,2.666,5.183,5.423,10.402,5.423
						c5.216,0,7.849-2.756,10.396-5.422c2.583-2.703,5.023-5.257,10.01-5.257c4.987,0,7.427,2.553,10.01,5.257
						c2.547,2.665,5.18,5.422,10.396,5.422s7.85-2.756,10.396-5.422c2.583-2.703,5.023-5.257,10.01-5.257
						c4.988,0,7.427,2.553,10.01,5.257c2.547,2.666,5.181,5.422,10.396,5.422"/>
				</g>
				<g>
					<path style="fill:#00B265;" d="M170.719,38.535c-3.282,0-5.943-2.661-5.943-5.943c0-3.282,2.661-5.943,5.943-5.943
						c3.282,0,5.943,2.661,5.943,5.943C176.662,35.874,174.002,38.535,170.719,38.535z"/>
					
						<ellipse transform="matrix(0.7224 -0.6915 0.6915 0.7224 -2.3565 110.8082)" style="fill:#0048B9;" cx="136.821" cy="58.339" rx="8.689" ry="8.689"/>
					<path style="fill:#3A95FF;" d="M108.264,109.613c-3.393,0-6.144-2.751-6.144-6.144c0-3.393,2.751-6.144,6.144-6.144
						c3.393,0,6.144,2.751,6.144,6.144C114.408,106.863,111.657,109.613,108.264,109.613z"/>
					<path style="fill:#FFCC0E;" d="M130.677,17.418c-3.393,0-6.144-2.751-6.144-6.144s2.751-6.144,6.144-6.144
						c3.393,0,6.144,2.751,6.144,6.144S134.07,17.418,130.677,17.418z"/>
					<path style="fill:#FFC1D2;" d="M155.215,98.732c-3.393,0-6.144-2.751-6.144-6.144c0-3.393,2.751-6.144,6.144-6.144
						c3.393,0,6.144,2.751,6.144,6.144C161.359,95.981,158.608,98.732,155.215,98.732z"/>
					<circle style="fill:#FF4A2A;" cx="232.352" cy="92.588" r="10.882"/>
				</g>
			</g>
			<g>
				<defs>
					<rect id="SVGID_00000121986225194513937870000011058529604309221821_" width="153.812" height="153.812"/>
				</defs>
				<clipPath id="SVGID_00000145765042493525341360000004872498707970333363_">
					<use xlink:href="#SVGID_00000121986225194513937870000011058529604309221821_"  style="overflow:visible;"/>
				</clipPath>
				<g style="clip-path:url(#SVGID_00000145765042493525341360000004872498707970333363_);">
					
						<ellipse transform="matrix(0.7071 -0.7071 0.7071 0.7071 -0.0164 0.0369)" style="fill:#FFF5EE;" cx="0.036" cy="0.038" rx="116.138" ry="116.138"/>
					<circle style="fill:#FFCC0E;" cx="0.036" cy="0.038" r="108.495"/>
					
						<ellipse transform="matrix(0.2298 -0.9732 0.9732 0.2298 -0.0093 0.0648)" style="fill:#FF4A2A;" cx="0.036" cy="0.038" rx="49.279" ry="49.279"/>
					<g>
						
							<ellipse transform="matrix(0.7071 -0.7071 0.7071 0.7071 -0.0164 0.0369)" style="fill:none;stroke:#000102;stroke-linecap:round;stroke-linejoin:round;stroke-miterlimit:10;" cx="0.036" cy="0.038" rx="116.138" ry="116.138"/>
						
							<ellipse transform="matrix(0.1602 -0.9871 0.9871 0.1602 -0.0073 0.068)" style="fill:none;stroke:#000102;stroke-linecap:round;stroke-linejoin:round;stroke-miterlimit:10;" cx="0.036" cy="0.038" rx="82.605" ry="82.605"/>
						
							<ellipse transform="matrix(0.1602 -0.9871 0.9871 0.1602 -0.0073 0.068)" style="fill:none;stroke:#000102;stroke-linecap:round;stroke-linejoin:round;stroke-miterlimit:10;" cx="0.036" cy="0.038" rx="82.605" ry="82.605"/>
						
							<ellipse transform="matrix(0.2298 -0.9732 0.9732 0.2298 -0.0093 0.0648)" style="fill:none;stroke:#000102;stroke-linecap:round;stroke-linejoin:round;stroke-miterlimit:10;" cx="0.036" cy="0.038" rx="65.942" ry="65.942"/>
						
							<ellipse transform="matrix(0.2298 -0.9732 0.9732 0.2298 -0.0093 0.0648)" style="fill:none;stroke:#000102;stroke-linecap:round;stroke-linejoin:round;stroke-miterlimit:10;" cx="0.036" cy="0.038" rx="49.279" ry="49.279"/>
						
							<ellipse transform="matrix(0.7071 -0.7071 0.7071 0.7071 -0.0164 0.0369)" style="fill:none;stroke:#000102;stroke-linecap:round;stroke-linejoin:round;stroke-miterlimit:10;" cx="0.036" cy="0.038" rx="99.475" ry="99.475"/>
					</g>
				</g>
			</g>
			<g>
				<g>
					<path style="fill:#3A95FF;" d="M750,64.815v40.655H305.305c-22.451,0-40.65-18.2-40.65-40.65v-0.004H750z"/>
					<g>
						<path style="fill:none;stroke:#000102;stroke-linecap:round;stroke-linejoin:round;stroke-miterlimit:10;" d="M750,97.236
							H312.48c-17.915,0-32.438-14.526-32.438-32.445l0,0"/>
						<path style="fill:none;stroke:#000102;stroke-linecap:round;stroke-linejoin:round;stroke-miterlimit:10;" d="M750,86.52
							H316.88c-11.999,0-21.725-9.729-21.725-21.73l0,0"/>
						<path style="fill:none;stroke:#000102;stroke-linecap:round;stroke-linejoin:round;stroke-miterlimit:10;" d="M750,75.655
							H320.617c-5.999,0-10.863-4.864-10.863-10.865l0,0"/>
					</g>
				</g>
				<g>
					<path style="fill:#0048B9;" d="M750,0v64.718H245.416c-35.739,0-64.712-28.972-64.712-64.711V0H750z"/>
					<g>
						<path style="fill:none;stroke:#000102;stroke-linecap:round;stroke-linejoin:round;stroke-miterlimit:10;" d="M750,51.65
							H256.839C228.319,51.65,205.2,28.525,205.2,0l0,0"/>
						<path style="fill:none;stroke:#000102;stroke-linecap:round;stroke-linejoin:round;stroke-miterlimit:10;" d="M750,34.592
							H263.842c-19.101,0-34.585-15.487-34.585-34.592v0"/>
						<path style="fill:none;stroke:#000102;stroke-linecap:round;stroke-linejoin:round;stroke-miterlimit:10;" d="M750,17.296
							H269.792c-9.55,0-17.293-7.744-17.293-17.296l0,0"/>
					</g>
				</g>
			</g>
		</g>
	</g>
</g>
</svg>
